<?xml version="1.0" encoding="UTF-8"?>
<svg version="1.1" xmlns="http://www.w3.org/2000/svg" width="77" height="66">
<path d="M0 0 C25.41 0 50.82 0 77 0 C77 21.78 77 43.56 77 66 C51.59 66 26.18 66 0 66 C0 44.22 0 22.44 0 0 Z " fill="#FEFEFE" transform="translate(0,0)"/>
<path d="M0 0 C4.10488479 2.82780952 7.56757505 6.44765011 9.8125 10.9375 C10.36924965 16.89043853 10.35391118 21.91098091 6.8125 26.9375 C2.04158493 31.83517852 -1.19496194 33.74443303 -8.0625 34.1875 C-12.72961245 34.10091164 -16.20377637 32.89924331 -19.59765625 29.54296875 C-23.94325432 24.53856281 -25.67203822 20.7942985 -25.5 14.24609375 C-24.79266484 9.02065525 -22.01852398 5.46083764 -18.125 2.0625 C-12.55471503 -1.96706785 -6.42301927 -2.14100642 0 0 Z " fill="#2AC764" transform="translate(47.1875,17.0625)"/>
<path d="M0 0 C3.34362255 0.24767574 4.28573857 1.27924452 6.75 3.6875 C8.52819414 5.99583898 9.02181943 7.1069152 9.625 10.0625 C8.75900828 14.1326611 7.38910633 15.6204147 4 18 C0.36487236 18.19827969 -1.84275054 17.87808841 -4.78125 15.6484375 C-6.4375 14.0625 -6.4375 14.0625 -9 11 C-9 10.34 -9 9.68 -9 9 C-6.0191155 9.44161252 -4.8585881 10.12020011 -2.5 12.125 C-0.20768627 14.28857755 -0.20768627 14.28857755 2.3125 13.75 C2.869375 13.5025 3.42625 13.255 4 13 C4.95020416 10.760165 4.95020416 10.760165 5 8 C2.60414714 5.35412766 2.60414714 5.35412766 0 3 C0 2.01 0 1.02 0 0 Z " fill="#EBF9F0" transform="translate(43,24)"/>
<path d="M0 0 C3.63156508 0.94615489 5.96044266 3.49205585 8.0390625 6.53125 C8.0390625 7.19125 8.0390625 7.85125 8.0390625 8.53125 C5.58220825 8.10765444 4.3425713 7.87614637 2.6640625 5.96875 C1.00144117 4.19988275 1.00144117 4.19988275 -2.1484375 4.34375 C-3.0765625 4.405625 -4.0046875 4.4675 -4.9609375 4.53125 C-5.9202532 6.72639873 -5.9202532 6.72639873 -5.9609375 9.53125 C-4.50192988 11.75786984 -2.76301919 13.55335546 -0.9609375 15.53125 C-0.9609375 16.19125 -0.9609375 16.85125 -0.9609375 17.53125 C-4.30456005 17.28357426 -5.24667607 16.25200548 -7.7109375 13.84375 C-9.53378621 11.49041281 -9.97538858 10.45096621 -10.5234375 7.40625 C-9.9609375 4.53125 -9.9609375 4.53125 -8.4609375 2.15625 C-5.61673644 0.30751931 -3.39431237 -0.15255337 0 0 Z " fill="#F0FBF4" transform="translate(36.9609375,25.46875)"/>
</svg>
